# xmcd
#
# Track frame offsets:
#	225
#	11207
#	23020
#	34717
#	45670
#	55822
#	70212
#	86702
#	99917
#	114812
#	129680
#	140032
#	153662
#	168520
#	186882
#	196390
#	214127
#	227782
#	240010
#	258612
#	273612
#
# Disc length: 3872 seconds
# Revision: 2
# Processed by: cddbd v1.5.2PL0 Copyright (c) Steve Scherf et al.
# Submitted via: dBpowerAMP V12.0
#
DISCID=290f1d15
DTITLE=Various Artist - Country Soft N Mellow Disc 3 
DYEAR=1989
DGENRE=Country
TTITLE0=Patsy Cline - Leaving On Your Mind
TTITLE1=Johnny Cash - Thanks A Lot
TTITLE2=Bill ANderson - Tip Of My Fingers
TTITLE3=Red Foley - Don't Let The Stars Get In Your Eyes
TTITLE4=Sonny James - Youre The Only World I Know
TTITLE5=Elvis Presley - Memories
TTITLE6=Elvis Presley - Always On My Mind
TTITLE7=Crystal Gale - Talking In Your Sleep
TTITLE8=Don Williams - We've Got A Good Fire Going
TTITLE9=Barbara Mandrel - Angel In Your Arms
TTITLE10=Charlie Pride - Before The Next Teardrop Falls
TTITLE11=Willie Nelson - Both Sides Now
TTITLE12=Dolly Parton - We'll Sing In The Sunshine
TTITLE13=Steve Wariner - Some Fools Never Learn
TTITLE14=George Strait - Right Or Wrong
TTITLE15=Mickey Newbury - She Even Woke Me Up To Say Goodbye
TTITLE16=Ed Bruce - Nights
TTITLE17=Bill Anderson - But You Know I Love You
TTITLE18=Kenny Rogers and The First Edition - I Believe In Music
TTITLE19=George Strait - Al My Ex's Live In Texas
TTITLE20=Linda Ronstadt - I'll Be Your Baby Tonight
EXTD=
EXTT0=
EXTT1=
EXTT2=
EXTT3=
EXTT4=
EXTT5=
EXTT6=
EXTT7=
EXTT8=
EXTT9=
EXTT10=
EXTT11=
EXTT12=
EXTT13=
EXTT14=
EXTT15=
EXTT16=
EXTT17=
EXTT18=
EXTT19=
EXTT20=
PLAYORDER=
